<svg width="28" height="31" viewBox="0 0 28 31" fill="none" xmlns="http://www.w3.org/2000/svg">
<path d="M21.8811 20.2107V22.3932C21.8811 22.8943 21.7323 24.2745 21.4354 24.4623C21.1385 24.65 20.6606 24.7439 20.0034 24.7439H19.8443V22.3816C19.8443 21.5732 19.6691 21.014 19.3188 20.7039C18.9684 20.3938 18.4604 20.2389 17.7947 20.2393H15.8024C15.4342 20.2393 15.1535 20.181 14.9605 20.0644C14.7674 19.9477 14.6711 19.75 14.6715 19.4712V19.2316H13.3773V19.4712C13.3773 19.7496 13.2807 19.9473 13.0877 20.0644C12.8946 20.1814 12.6101 20.2397 12.2342 20.2393H10.2516C9.58714 20.2393 9.07911 20.3942 8.72756 20.7039C8.376 21.0136 8.20103 21.5728 8.20266 22.3816V24.7439H7.98502C7.31279 24.7439 6.83159 24.65 6.5414 24.4623C6.25243 24.2745 6.10734 22.8943 6.10734 22.3932V20.2107H3.85168V22.6492C3.85168 24.0575 4.1565 26.0675 4.76614 26.6076C5.37578 27.1477 6.26097 27.4172 7.41867 27.4172H10.8936C11.5353 27.4172 12.0243 27.5188 12.3604 27.722C12.6965 27.9252 12.8648 28.2695 12.8652 28.7547V30.0222H15.1208V28.7578C15.1208 28.2725 15.2891 27.9283 15.6256 27.7251C15.9621 27.5218 16.459 27.4202 17.1162 27.4202H20.5667C21.7246 27.4202 22.6088 27.1504 23.2192 26.6106C23.8289 26.0705 24.1337 24.0605 24.1337 22.6523V20.2137L21.8811 20.2107ZM15.0531 25.2957C14.5207 25.6614 14.1765 26.2678 14.0204 27.1148C13.8327 26.2698 13.4726 25.6635 12.9401 25.2957C12.4077 24.9278 11.6412 24.7439 10.6406 24.7439H9.49692V22.5297C9.49692 22.242 9.58227 22.0445 9.75297 21.9372C9.92367 21.8299 10.1976 21.7758 10.5748 21.775H12.0988C12.6735 21.775 13.1137 21.6695 13.4193 21.4586C13.725 21.2477 13.9221 20.899 14.0107 20.4125C14.118 20.8977 14.3244 21.2458 14.6301 21.4568C14.9357 21.6677 15.3763 21.7738 15.9518 21.775H17.4758C17.8624 21.775 18.1387 21.8291 18.3049 21.9372C18.4712 22.0453 18.5541 22.2428 18.5537 22.5297V24.7439H17.3539C16.3505 24.7439 15.5829 24.9278 15.0513 25.2957H15.0531ZM3.79682 18.4269H3.80474C3.78401 17.9229 3.77365 17.411 3.77365 16.8912C3.77365 16.6035 3.77365 16.3242 3.77853 16.0511C3.39544 16.0469 3.02946 15.8919 2.75999 15.6196C2.49052 15.3472 2.33931 14.9796 2.33918 14.5965C2.33918 13.7924 3.05184 13.1462 3.85534 13.1407H3.89863C3.9527 12.3934 4.04959 11.6499 4.18881 10.9137H4.17357C5.17947 5.99699 9.2805 2.31418 14.0235 2.31418C18.7664 2.31418 22.8224 5.99699 23.8161 10.9143H23.8112C23.9501 11.6505 24.047 12.3941 24.1014 13.1413H24.144C24.9482 13.1468 25.6608 13.793 25.6608 14.5971C25.6607 14.9802 25.5095 15.3478 25.24 15.6202C24.9705 15.8925 24.6046 16.0476 24.2215 16.0517C24.2245 16.3248 24.2263 16.6041 24.2263 16.8918C24.2263 17.4112 24.216 17.9231 24.1953 18.4275H24.2032C26.2997 18.4275 28 16.7888 28 14.6922C28.0008 13.898 27.7515 13.1237 27.2873 12.4793C27.0319 12.1234 26.7172 11.8141 26.357 11.5648C25.42 5.01548 20.171 0 14.0168 0C7.86248 0 2.62753 5.00207 1.68077 11.5392C1.16389 11.8869 0.740304 12.3561 0.447238 12.9058C0.154172 13.4555 0.000594116 14.0687 0 14.6916C0 16.7882 1.69967 18.4269 3.79682 18.4269Z" fill="url(#paint0_linear)"/>
<path d="M9.4335 16.9199C10.5116 16.9199 11.3856 16.0459 11.3856 14.9678C11.3856 13.8897 10.5116 13.0157 9.4335 13.0157C8.35541 13.0157 7.48145 13.8897 7.48145 14.9678C7.48145 16.0459 8.35541 16.9199 9.4335 16.9199Z" fill="#9E48FB"/>
<path d="M18.6391 16.9199C19.7172 16.9199 20.5911 16.0459 20.5911 14.9678C20.5911 13.8897 19.7172 13.0157 18.6391 13.0157C17.561 13.0157 16.687 13.8897 16.687 14.9678C16.687 16.0459 17.561 16.9199 18.6391 16.9199Z" fill="#598DFD"/>
<defs>
<linearGradient id="paint0_linear" x1="1.74921e-08" y1="15.2572" x2="28" y2="15.2572" gradientUnits="userSpaceOnUse">
<stop stop-color="#EA41F7"/>
<stop offset="0.296875" stop-color="#812FED"/>
<stop offset="0.489583" stop-color="#4E4FFF"/>
<stop offset="0.692708" stop-color="#5786FD"/>
<stop offset="1" stop-color="#65D5FA"/>
</linearGradient>
</defs>
</svg>
