<!-- <svg xmlns="http://www.w3.org/2000/svg" viewBox="0 0 600 600">
	<defs>
		<style>
			.prefix__prefix__cls-1 {
				fill: #ffffff
			}
		</style>
	</defs>
	<g id="prefix__prefix__Layer_2" data-name="Layer 2">
		<path class="prefix__prefix__cls-1"
			d="M426.26 384.69v35.8c0 8.22-2.44 30.86-7.31 33.94s-12.71 4.62-23.49 4.62h-2.61V420.3q0-19.89-8.62-27.52t-25-7.62h-32.68q-9.06 0-13.81-2.87t-4.74-9.73v-3.93h-21.23v3.93q0 6.85-4.75 9.73t-14 2.87H235.5q-16.35 0-25 7.62t-8.61 27.52v38.75h-3.57q-16.54 0-23.68-4.62c-4.74-3.08-7.12-25.72-7.12-33.94v-35.8h-37v40c0 23.1 5 56.07 15 64.93s24.52 13.28 43.51 13.28h57q15.79 0 24.06 5t8.28 16.94v20.79h37v-20.74q0-11.94 8.28-16.94t24.45-5h56.6q28.49 0 43.51-13.28c10-8.86 15-41.83 15-64.93v-40zm-112 83.41q-13.1 9-16.94 29.84-4.62-20.79-17.72-29.84t-37.72-9.05h-18.76v-36.32q0-7.08 4.2-9.72t13.48-2.66h25q14.14 0 21.66-5.19t9.7-17.16q2.64 11.94 10.16 17.13t21.68 5.22h25q9.51 0 13.6 2.66t4.08 9.72v36.32H352q-24.69 0-37.77 9.05zM129.62 355.43h.13q-.51-12.4-.51-25.19c0-4.72 0-9.3.08-13.78a23.87 23.87 0 01-23.61-23.86c0-13.19 11.69-23.79 24.87-23.88h.71a321.42 321.42 0 014.76-36.53h-.25c16.5-80.65 83.77-141.06 161.57-141.06S441.7 151.54 458 232.2h-.08a323.7 323.7 0 014.76 36.53h.7c13.19.09 24.88 10.69 24.88 23.88a23.87 23.87 0 01-23.61 23.86c.05 4.48.08 9.06.08 13.78q0 12.78-.51 25.19h.13c34.39 0 62.28-26.88 62.28-61.27a62 62 0 00-11.69-36.3 62.76 62.76 0 00-15.26-15c-15.37-107.43-101.47-189.7-202.42-189.7S110.44 135.22 94.91 242.45a62.39 62.39 0 00-27.57 51.71c0 34.39 27.88 61.27 62.28 61.27z" />
		<circle class="prefix__prefix__cls-1" cx="222.08" cy="298.69" r="32.02" />
		<circle class="prefix__prefix__cls-1" cx="373.08" cy="298.69" r="32.02" />
	</g>
</svg> 



Up here is the original 
if you want to quickly revert it  

-->
<svg width="36" height="39" viewBox="0 0 36 39" fill="none" xmlns="http://www.w3.org/2000/svg">
<g filter="url(#filter0_d)">
<path d="M25.8811 24.2107V26.3932C25.8811 26.8943 25.7323 28.2745 25.4354 28.4623C25.1385 28.65 24.6606 28.7439 24.0034 28.7439H23.8443V26.3816C23.8443 25.5732 23.6691 25.014 23.3188 24.7039C22.9684 24.3938 22.4604 24.2389 21.7947 24.2393H19.8024C19.4342 24.2393 19.1535 24.181 18.9605 24.0644C18.7674 23.9477 18.6711 23.75 18.6715 23.4712V23.2316H17.3773V23.4712C17.3773 23.7496 17.2807 23.9473 17.0877 24.0644C16.8946 24.1814 16.6101 24.2397 16.2342 24.2393H14.2516C13.5871 24.2393 13.0791 24.3942 12.7276 24.7039C12.376 25.0136 12.201 25.5728 12.2027 26.3816V28.7439H11.985C11.3128 28.7439 10.8316 28.65 10.5414 28.4623C10.2524 28.2745 10.1073 26.8943 10.1073 26.3932V24.2107H7.85168V26.6492C7.85168 28.0575 8.1565 30.0675 8.76614 30.6076C9.37578 31.1477 10.261 31.4172 11.4187 31.4172H14.8936C15.5353 31.4172 16.0243 31.5188 16.3604 31.722C16.6965 31.9252 16.8648 32.2695 16.8652 32.7547V34.0222H19.1208V32.7578C19.1208 32.2725 19.2891 31.9283 19.6256 31.7251C19.9621 31.5218 20.459 31.4202 21.1162 31.4202H24.5667C25.7246 31.4202 26.6088 31.1504 27.2192 30.6106C27.8289 30.0705 28.1337 28.0605 28.1337 26.6523V24.2137L25.8811 24.2107ZM19.0531 29.2957C18.5207 29.6614 18.1765 30.2678 18.0204 31.1148C17.8327 30.2698 17.4726 29.6635 16.9401 29.2957C16.4077 28.9278 15.6412 28.7439 14.6406 28.7439H13.4969V26.5297C13.4969 26.242 13.5823 26.0445 13.753 25.9372C13.9237 25.8299 14.1976 25.7758 14.5748 25.775H16.0988C16.6735 25.775 17.1137 25.6695 17.4193 25.4586C17.725 25.2477 17.9221 24.899 18.0107 24.4125C18.118 24.8977 18.3244 25.2458 18.6301 25.4568C18.9357 25.6677 19.3763 25.7738 19.9518 25.775H21.4758C21.8624 25.775 22.1387 25.8291 22.3049 25.9372C22.4712 26.0453 22.5541 26.2428 22.5537 26.5297V28.7439H21.3539C20.3505 28.7439 19.5829 28.9278 19.0513 29.2957H19.0531ZM7.79682 22.4269H7.80474C7.78401 21.9229 7.77365 21.411 7.77365 20.8912C7.77365 20.6035 7.77365 20.3242 7.77853 20.0511C7.39544 20.0469 7.02946 19.8919 6.75999 19.6196C6.49052 19.3472 6.33931 18.9796 6.33918 18.5965C6.33918 17.7924 7.05184 17.1462 7.85534 17.1407H7.89863C7.9527 16.3934 8.04959 15.6499 8.18881 14.9137H8.17357C9.17947 9.99699 13.2805 6.31418 18.0235 6.31418C22.7664 6.31418 26.8224 9.99699 27.8161 14.9143H27.8112C27.9501 15.6505 28.047 16.3941 28.1014 17.1413H28.144C28.9482 17.1468 29.6608 17.793 29.6608 18.5971C29.6607 18.9802 29.5095 19.3478 29.24 19.6202C28.9705 19.8925 28.6046 20.0476 28.2215 20.0517C28.2245 20.3248 28.2263 20.6041 28.2263 20.8918C28.2263 21.4112 28.216 21.9231 28.1953 22.4275H28.2032C30.2997 22.4275 32 20.7888 32 18.6922C32.0008 17.898 31.7515 17.1237 31.2873 16.4793C31.0319 16.1234 30.7172 15.8141 30.357 15.5648C29.42 9.01548 24.171 4 18.0168 4C11.8625 4 6.62753 9.00207 5.68077 15.5392C5.16389 15.8869 4.7403 16.3561 4.44724 16.9058C4.15417 17.4555 4.00059 18.0687 4 18.6916C4 20.7882 5.69967 22.4269 7.79682 22.4269Z" fill="url(#paint0_linear)"/>
<path d="M13.4335 20.9199C14.5116 20.9199 15.3856 20.0459 15.3856 18.9678C15.3856 17.8897 14.5116 17.0157 13.4335 17.0157C12.3554 17.0157 11.4814 17.8897 11.4814 18.9678C11.4814 20.0459 12.3554 20.9199 13.4335 20.9199Z" fill="#9E48FB"/>
<path d="M22.6391 20.9199C23.7172 20.9199 24.5911 20.0459 24.5911 18.9678C24.5911 17.8897 23.7172 17.0157 22.6391 17.0157C21.561 17.0157 20.687 17.8897 20.687 18.9678C20.687 20.0459 21.561 20.9199 22.6391 20.9199Z" fill="#598DFD"/>
</g>
<defs>
<filter id="filter0_d" x="0" y="0" width="36" height="38.0222" filterUnits="userSpaceOnUse" color-interpolation-filters="sRGB">
<feFlood flood-opacity="0" result="BackgroundImageFix"/>
<feColorMatrix in="SourceAlpha" type="matrix" values="0 0 0 0 0 0 0 0 0 0 0 0 0 0 0 0 0 0 127 0"/>
<feOffset/>
<feGaussianBlur stdDeviation="2"/>
<feColorMatrix type="matrix" values="0 0 0 0 0.917647 0 0 0 0 0.254902 0 0 0 0 0.968627 0 0 0 1 0"/>
<feBlend mode="normal" in2="BackgroundImageFix" result="effect1_dropShadow"/>
<feBlend mode="normal" in="SourceGraphic" in2="effect1_dropShadow" result="shape"/>
</filter>
<linearGradient id="paint0_linear" x1="4" y1="19.2572" x2="32" y2="19.2572" gradientUnits="userSpaceOnUse">
<stop stop-color="#EA41F7"/>
<stop offset="0.296875" stop-color="#812FED"/>
<stop offset="0.489583" stop-color="#4E4FFF"/>
<stop offset="0.692708" stop-color="#5786FD"/>
<stop offset="1" stop-color="#65D5FA"/>
</linearGradient>
</defs>
</svg>
