<svg width="23" height="22" viewBox="0 0 23 22" fill="none" xmlns="http://www.w3.org/2000/svg">
  <path fill-rule="evenodd" clip-rule="evenodd"
    d="M10 21.1325C9.46957 21.1325 8.96086 20.9098 8.58579 20.5135C8.21071 20.1172 8 19.5797 8 19.0192V2.11325C8 1.55278 8.21071 1.01527 8.58579 0.618956C8.96086 0.222645 9.46957 0 10 0H21C21.5304 0 22.0391 0.222645 22.4142 0.618956C22.7893 1.01527 23 1.55278 23 2.11325V19.0192C23 19.5797 22.7893 20.1172 22.4142 20.5135C22.0391 20.9098 21.5304 21.1325 21 21.1325H10ZM9.5 19.0192C9.5 19.1593 9.55268 19.2937 9.64645 19.3928C9.74021 19.4919 9.86739 19.5475 10 19.5475H21C21.1326 19.5475 21.2598 19.4919 21.3536 19.3928C21.4473 19.2937 21.5 19.1593 21.5 19.0192V2.11325C21.5 1.97313 21.4473 1.83875 21.3536 1.73967C21.2598 1.6406 21.1326 1.58494 21 1.58494H10C9.86739 1.58494 9.74021 1.6406 9.64645 1.73967C9.55268 1.83875 9.5 1.97313 9.5 2.11325V19.0192ZM6.17 2.28759C6.25891 2.4755 6.27357 2.69302 6.21075 2.89235C6.14793 3.09167 6.01278 3.25648 5.835 3.35055C5.607 3.47101 5.54 3.53758 5.52 3.56294C5.51606 3.56779 5.51332 3.5736 5.512 3.57984C5.50256 3.61846 5.49852 3.65833 5.5 3.69818V17.4343C5.5 17.5083 5.508 17.5421 5.512 17.5526C5.51298 17.559 5.51577 17.5649 5.52 17.5695C5.54 17.5949 5.607 17.6615 5.835 17.7819C5.9239 17.8279 6.0033 17.892 6.06864 17.9706C6.13397 18.0492 6.18394 18.1406 6.21566 18.2397C6.24738 18.3388 6.26023 18.4435 6.25346 18.5478C6.2467 18.6522 6.22045 18.7541 6.17624 18.8476C6.13202 18.9412 6.07072 19.0246 5.99585 19.093C5.92099 19.1615 5.83405 19.2135 5.74005 19.2463C5.64604 19.279 5.54683 19.2918 5.44813 19.2838C5.34944 19.2759 5.25321 19.2474 5.165 19.1999C4.893 19.0562 4.585 18.8671 4.355 18.5681C4.1 18.2363 4 17.8495 4 17.4343V3.69818C4 3.28293 4.1 2.89621 4.355 2.56443C4.585 2.2654 4.893 2.07627 5.165 1.93256C5.34296 1.83869 5.54893 1.82336 5.73759 1.88994C5.92624 1.95652 6.08215 2.09956 6.171 2.28759H6.17ZM2.15 3.8292C2.19934 3.91932 2.2314 4.01882 2.24433 4.12203C2.25726 4.22524 2.25082 4.33013 2.22538 4.43071C2.19993 4.53129 2.15598 4.62558 2.09603 4.70821C2.03608 4.79083 1.96132 4.86016 1.876 4.91224C1.726 5.00417 1.619 5.09187 1.556 5.17112C1.5 5.24085 1.5 5.27255 1.5 5.28312V15.8494C1.5 15.8599 1.5 15.8916 1.556 15.9614C1.619 16.0396 1.726 16.1283 1.876 16.2202C1.96123 16.2724 2.0359 16.3418 2.09574 16.4245C2.15558 16.5071 2.19943 16.6014 2.22478 16.702C2.25013 16.8026 2.25649 16.9074 2.24349 17.0106C2.23048 17.1138 2.19838 17.2132 2.149 17.3033C2.09962 17.3933 2.03394 17.4722 1.95571 17.5355C1.87748 17.5987 1.78822 17.645 1.69304 17.6718C1.59786 17.6986 1.49862 17.7053 1.40098 17.6916C1.30335 17.6778 1.20923 17.6439 1.124 17.5917C0.73 17.3508 0 16.8077 0 15.8494V5.28312C0 4.32476 0.73 3.78271 1.124 3.53969C1.20929 3.48755 1.30346 3.45369 1.40114 3.44002C1.49881 3.42635 1.59808 3.43316 1.69327 3.46004C1.78846 3.48693 1.8777 3.53337 1.9559 3.59671C2.03409 3.66006 2.09971 3.73906 2.149 3.8292H2.15Z"
    fill="#2A3037" />
</svg>